<svg xmlns="http://www.w3.org/2000/svg" xmlns:xlink="http://www.w3.org/1999/xlink" width="1000" zoomAndPan="magnify" viewBox="0 0 750 749.999995" height="1000" preserveAspectRatio="xMidYMid meet" version="1.0"><defs><clipPath id="2a96d5370d"><path d="M 0.398438 0.28125 L 691 0.28125 L 691 716.679688 L 0.398438 716.679688 Z M 0.398438 0.28125 " clip-rule="nonzero"/></clipPath><clipPath id="0b00df3d17"><rect x="0" width="692" y="0" height="717"/></clipPath></defs><rect x="-75" width="900" fill="#ffffff" y="-74.999999" height="899.999994" fill-opacity="1"/><rect x="-75" width="900" fill="#0657df" y="-74.999999" height="899.999994" fill-opacity="1"/><g transform="matrix(1, 0, 0, 1, 26, 5)"><g clip-path="url(#0b00df3d17)"><g clip-path="url(#2a96d5370d)"><path fill="#ffffff" d="M 286.96875 423.90625 C 286.511719 424.230469 279.878906 421.953125 275.910156 422.210938 C 234.59375 424.929688 202.976562 439.292969 170.027344 463.0625 C 131.496094 490.859375 79.699219 549.4375 32.210938 554.695312 C 26.464844 555.328125 5.3125 553.398438 4.15625 554.1875 C 2.484375 555.335938 1.277344 560.832031 0.945312 563.09375 C -2.09375 583.796875 11.421875 604 28.519531 614.546875 C 32.617188 617.078125 43.316406 620.167969 43.90625 620.746094 C 48.28125 625.019531 29.484375 627.085938 30.078125 631.839844 C 30.496094 635.191406 32.800781 638.375 35.199219 640.648438 C 55.835938 660.152344 105.332031 639.851562 128.433594 631.097656 C 114.144531 649.324219 87.933594 653.097656 66.71875 658.195312 L 49.089844 659.519531 C 74.058594 691.679688 106.558594 704.886719 147.402344 696.648438 L 126.746094 706.121094 C 129.027344 709.351562 131.753906 710.191406 135.285156 711.34375 C 238.269531 744.984375 349.46875 604.472656 356.136719 511.148438 C 356.628906 504.3125 354.070312 478.839844 354.613281 476.886719 C 355.160156 474.9375 358.625 474.410156 359.65625 472.800781 C 361.3125 470.21875 362.515625 465.402344 363.558594 464.234375 C 365.417969 462.148438 381.882812 454.925781 387.070312 450.648438 C 396.839844 442.582031 403.699219 433.648438 396.574219 420.738281 C 394.863281 417.636719 389.464844 416.066406 391.957031 412.570312 L 683.628906 36.4375 C 700.054688 19.359375 686.167969 -5 663.148438 2.160156 C 658.902344 3.484375 642.417969 21.042969 638.207031 25.519531 C 597.730469 68.554688 557.550781 121.546875 520.101562 167.914062 C 464.007812 237.355469 410.015625 308.59375 354.445312 378.464844 C 351.535156 380.3125 341.710938 372.648438 336.175781 372.40625 C 315.847656 371.519531 309.574219 401.875 299.03125 412.652344 C 296.152344 415.589844 293.132812 415.664062 290.449219 417.886719 C 288.304688 419.660156 287.335938 423.644531 286.96875 423.910156 Z M 306.136719 425.800781 C 310.425781 419.695312 324.222656 436.535156 327.453125 436.007812 C 331.96875 435.269531 349.414062 405.316406 355.269531 401.4375 C 356.921875 400.335938 360.851562 401.007812 361.328125 401.628906 C 363.992188 405.097656 337.972656 437.085938 333.804688 442.167969 C 333.796875 443.5 358.640625 459.859375 346.628906 462.019531 C 344.890625 462.328125 339.886719 458.167969 338.089844 456.789062 C 330.910156 451.304688 314.550781 438.449219 308.976562 432.421875 C 307.425781 430.742188 304.230469 428.503906 306.136719 425.796875 Z M 306.136719 425.800781 " fill-opacity="1" fill-rule="nonzero"/></g><path fill="#ffffff" d="M 561.476562 456.839844 C 567.679688 462.023438 570.554688 441.566406 572.230469 437.417969 C 579.296875 419.953125 599.109375 416.230469 599.519531 414.429688 C 601.40625 406.082031 592.203125 406.566406 586.753906 403.082031 C 572.203125 393.769531 568.171875 364.386719 565.761719 363.6875 C 558.542969 361.609375 556.988281 378.628906 554.871094 383.824219 C 546.941406 403.28125 544.59375 398.257812 529.914062 407.171875 C 519.070312 413.761719 543.136719 420.039062 548.414062 425.890625 C 555.171875 433.386719 560.179688 455.753906 561.476562 456.839844 Z M 561.476562 456.839844 " fill-opacity="1" fill-rule="nonzero"/><path fill="#ffffff" d="M 298.851562 200.207031 C 292.269531 191.550781 288.070312 214.5 286.257812 218.726562 C 278.65625 236.492188 275.851562 230.839844 264.09375 239.683594 C 254.558594 246.851562 271.835938 250.6875 276.691406 254.242188 C 287.375 262.0625 291.464844 285.523438 293.210938 286.03125 C 300.183594 288.050781 300.484375 275.492188 302.375 271.074219 C 306.628906 261.148438 308.398438 257.925781 317.617188 251.8125 C 321.363281 249.328125 335.09375 246.617188 325.75 239.671875 C 315.296875 231.902344 309.59375 234.34375 303.570312 218.730469 C 301.894531 214.398438 300.613281 202.53125 298.84375 200.207031 Z M 298.851562 200.207031 " fill-opacity="1" fill-rule="nonzero"/><path fill="#ffffff" d="M 394.167969 118.625 C 394.703125 119.453125 407.351562 123.652344 411.394531 128.167969 C 416.269531 133.621094 420.125 157.734375 426.867188 153.207031 C 427.851562 152.546875 430.542969 136.121094 434.722656 130.851562 C 440.269531 123.859375 455.007812 122.550781 452.839844 114.640625 C 452.429688 113.148438 437.222656 109.445312 432.03125 97.179688 C 429.714844 91.710938 429.390625 76.847656 422.625 79.070312 C 420.152344 79.882812 415.667969 98.5 411.101562 103.777344 C 406.535156 109.054688 390.660156 113.21875 394.167969 118.628906 Z M 394.167969 118.625 " fill-opacity="1" fill-rule="nonzero"/><path fill="#ffffff" d="M 459.859375 534.664062 C 458.941406 535.410156 456.457031 551.273438 451.847656 556.828125 C 448.445312 560.933594 436.320312 564.222656 437.25 568.085938 C 437.652344 569.734375 448.894531 574.679688 451.746094 577.765625 C 457.683594 584.203125 456.699219 591.890625 459.667969 597.175781 C 464.195312 605.242188 470.632812 581.78125 473.457031 578.4375 C 477.058594 574.171875 489.839844 570.070312 488.996094 566.402344 C 488.621094 564.777344 473.6875 560.804688 468.785156 546.925781 C 467.386719 542.960938 467.191406 528.707031 459.859375 534.65625 Z M 459.859375 534.664062 " fill-opacity="1" fill-rule="nonzero"/></g></g></svg>